<svg xmlns="http://www.w3.org/2000/svg" viewBox="0 0 24 24" width="100%" height="100%" fill="none">
  <circle cx="12" cy="12" r="10" fill="#e65c00" />
  <path d="M16.5 8.5C14.2 7.1 10.3 7 8 7.7C7.6 7.8 7.2 7.6 7.1 7.2C7 6.8 7.2 6.4 7.6 6.3C10.3 5.5 14.6 5.6 17.2 7.2C17.6 7.4 17.7 7.9 17.5 8.2C17.3 8.6 16.8 8.7 16.5 8.5ZM16.4 10.8C16.1 11.2 15.6 11.3 15.2 11.1C13.2 9.9 10.2 9.5 7.8 10.3C7.4 10.4 7 10.2 6.9 9.8C6.8 9.4 7 9 7.4 8.9C10.2 8.1 13.5 8.5 15.8 9.9C16.2 10.1 16.3 10.6 16.4 10.8ZM15.1 13C14.9 13.3 14.5 13.4 14.2 13.2C12.5 12.2 10.4 11.9 7.6 12.6C7.2 12.7 6.8 12.5 6.7 12.1C6.6 11.7 6.8 11.3 7.2 11.2C10.3 10.5 12.6 10.8 14.5 12C14.8 12.2 14.9 12.6 15.1 13Z" fill="#FFFFFF" />
</svg>
